<svg xmlns="http://www.w3.org/2000/svg" viewBox="0 0 360 84" role="img" aria-label="MINEKA AI">
  <defs>
    <linearGradient id="markGradient" x1="12" y1="12" x2="72" y2="72" gradientUnits="userSpaceOnUse">
      <stop stop-color="#00D4FF"/>
      <stop offset="1" stop-color="#B6FF3B"/>
    </linearGradient>
    <filter id="softGlow" x="-30%" y="-30%" width="160%" height="160%">
      <feGaussianBlur stdDeviation="4" result="blur"/>
      <feMerge>
        <feMergeNode in="blur"/>
        <feMergeNode in="SourceGraphic"/>
      </feMerge>
    </filter>
  </defs>
  <rect x="3" y="8" width="68" height="68" rx="18" fill="#081019" stroke="url(#markGradient)" stroke-opacity=".55" stroke-width="2"/>
  <circle cx="37" cy="42" r="29" fill="#00D4FF" opacity=".08"/>
  <path d="M18 60V24h9l12 19 12-19h9v36H50V43L41 56h-4L28 43v17H18Z" fill="#F4F7FA"/>
  <path d="M27 24H18l19 32h4l19-32h-9L39 43 27 24Z" fill="url(#markGradient)" opacity=".95"/>
  <path d="M18 60 39 43 60 60M18 24l21 19 21-19" fill="none" stroke="url(#markGradient)" stroke-width="2.2" stroke-linecap="round" stroke-linejoin="round" opacity=".75"/>
  <g filter="url(#softGlow)">
    <circle cx="18" cy="24" r="3.3" fill="#00D4FF"/>
    <circle cx="60" cy="24" r="3.3" fill="#B6FF3B"/>
    <circle cx="39" cy="43" r="4" fill="#F4F7FA"/>
    <circle cx="18" cy="60" r="3.3" fill="#B6FF3B"/>
    <circle cx="60" cy="60" r="3.3" fill="#00D4FF"/>
  </g>
  <text x="90" y="45" fill="#F4F7FA" font-family="Inter, Geist, system-ui, -apple-system, BlinkMacSystemFont, 'Segoe UI', sans-serif" font-size="30" font-weight="800" letter-spacing="4">MINEKA AI</text>
  <text x="92" y="63" fill="#98A2B3" font-family="Inter, Geist, system-ui, -apple-system, BlinkMacSystemFont, 'Segoe UI', sans-serif" font-size="9" font-weight="700" letter-spacing="4">AI OPERATIONS</text>
</svg>
